<?xml version="1.0" encoding="utf-8"?>
<!-- Generator: Adobe Illustrator 23.0.3, SVG Export Plug-In . SVG Version: 6.00 Build 0)  -->
<svg version="1.1" id="Layer_1" xmlns="http://www.w3.org/2000/svg" xmlns:xlink="http://www.w3.org/1999/xlink" x="0px" y="0px"
	 viewBox="0 0 230.81 227.74" style="enable-background:new 0 0 230.81 227.74;" xml:space="preserve">
<path d="M219.95,95.54c0,3.11,0.3,6.25-0.07,9.31c-0.58,4.81-1.55,9.58-2.48,14.35c-1.3,6.66-3.65,13.01-6.08,19.32
	c-1.22,3.17-2.7,6.27-4.32,9.25c-2.71,4.99-5.41,10-8.53,14.74c-2.98,4.52-6.42,8.76-9.81,13.01c-2.15,2.69-4.45,5.3-6.92,7.71
	c-3.5,3.4-7.15,6.66-10.87,9.82c-3.08,2.61-6.25,5.12-9.57,7.4c-3.6,2.47-7.29,4.87-11.18,6.83c-5.53,2.79-11.19,5.36-16.95,7.64
	c-4.86,1.93-9.98,3.08-15.15,4.04c-5.42,1.01-10.86,1.36-16.35,1.28c-5.66-0.08-11.16-1.11-16.6-2.61
	c-6.03-1.67-11.9-3.8-17.51-6.54c-4.76-2.33-9.36-4.99-13.45-8.41c-1.88-1.57-3.78-3.04-6.2-3.79c-3.12-0.96-5.58-2.98-7.91-5.2
	c-6.06-5.77-10.85-12.46-14.39-20.03c-2.69-5.75-4.62-11.76-5.83-18c-1.05-5.44-1.75-10.89-1.58-16.43c0.14-4.53,0.07-9.1,0.6-13.59
	c0.9-7.6,2.61-15.06,5.03-22.33c2.54-7.65,5.61-15.1,9.57-22.12c2.79-4.94,5.82-9.77,9.08-14.41c3.1-4.41,6.48-8.65,10.02-12.71
	c3.38-3.87,6.98-7.57,10.77-11.04c5.21-4.78,10.73-9.22,16.75-12.96c4.11-2.56,8.33-4.96,12.6-7.24c5.51-2.95,11.31-5.21,17.29-7.09
	c6.02-1.88,12.1-3.42,18.38-3.9c4.73-0.37,9.5-0.72,14.22-0.48c4.49,0.23,8.96,1.08,13.38,1.95c5.11,1.02,9.98,2.91,14.61,5.28
	c4.09,2.09,8.07,4.42,11.47,7.6c2.28,2.14,4.55,4.29,6.9,6.34c1.75,1.53,3.71,2.83,5.43,4.39c2.51,2.27,4.99,4.59,7.28,7.06
	c1.94,2.09,3.66,4.38,5.37,6.67c2.6,3.48,4.65,7.27,6.47,11.23c2.05,4.47,3.65,9.08,4.68,13.86c0.84,3.89,1.34,7.85,1.81,11.81
	c0.31,2.64,0.3,5.32,0.43,7.97C220.21,95.54,220.08,95.54,219.95,95.54z M198.35,45.96c-0.02,0.32-0.08,0.46-0.03,0.55
	c0.14,0.27,0.29,0.55,0.47,0.79c1.8,2.31,3.73,4.51,4.82,7.31c2.2,5.66,2.57,11.1-1.15,16.4c-1.93,2.74-2.39,6.01-1.54,9.23
	c0.87,3.27,2.06,6.47,3.27,9.64c1.44,3.77,1.64,7.5-0.36,11.04c-0.88,1.56-2.3,2.84-3.6,4.12c-2.53,2.48-4.12,5.46-4.9,8.85
	c-0.42,1.83-0.73,3.72-0.77,5.58c-0.04,2.1,0.56,4.23,0.41,6.32c-0.24,3.44-1.53,6.58-4.25,8.82c-2.29,1.89-4.87,3.44-7.21,5.27
	c-2.73,2.14-4.8,4.77-5.36,8.34c-0.63,4.07-1.15,8.15-1.9,12.2c-0.83,4.45-3.24,7.85-7.74,9.11c-3.06,0.86-6.26,1.2-9.42,1.67
	c-3.02,0.45-5.68,1.47-7.48,4.11c-3.2,4.7-6.4,9.4-9.62,14.09c-2.15,3.14-5.09,5.26-8.83,5.89c-5.66,0.95-11.35,1.74-17.05,2.42
	c-3.77,0.45-7.06,1.93-10.11,4.04c-3.17,2.19-6.28,4.47-9.42,6.71c-3.65,2.6-7.5,2.61-11.43,0.78c-4.39-2.05-8.74-4.19-13.11-6.29
	c-4.36-2.1-8.87-3.26-13.8-2.06c0.1,0.12,0.18,0.28,0.32,0.36c3.61,2.2,7.08,4.72,10.89,6.49c4.89,2.26,10.04,4,15.14,5.8
	c4.72,1.66,9.66,2.56,14.63,2.9c3.62,0.24,7.3,0.09,10.92-0.25c4.22-0.4,8.47-0.93,12.59-1.91c6.76-1.6,13.29-4,19.55-7.04
	c7.41-3.61,14.54-7.73,20.99-12.92c4.25-3.42,8.49-6.86,12.56-10.5c2.66-2.38,5.07-5.07,7.48-7.71c2.08-2.28,4.12-4.6,5.97-7.06
	c3.97-5.28,7.71-10.7,10.98-16.47c3.77-6.64,6.96-13.53,9.53-20.71c2.26-6.3,4.16-12.71,5.1-19.36c0.57-4,1.3-7.99,1.53-12.01
	c0.22-3.89,0.06-7.83-0.25-11.73c-0.31-3.79-0.86-7.58-1.6-11.31c-1.23-6.19-3.44-12.09-6.42-17.65
	C205.5,54.87,202.43,50.19,198.35,45.96z M94.72,137.19c2.7,0,5.38,0.04,8.07-0.01c3.34-0.07,6.42-1.18,9.44-2.51
	c5.95-2.62,10.66-6.86,14.33-12.05c4.82-6.81,8.72-14.13,9.87-22.62c0.46-3.42,0.34-6.78-0.07-10.17c-0.1-0.84-0.61-1.3-1.42-1.4
	c-2.86-0.36-5.69-0.31-8.55,0.22c-7.16,1.31-13.23,4.71-18.59,9.48c-4.86,4.33-8.58,9.53-11.22,15.49c-1.82,4.11-3,8.4-3.32,12.89
	C93,130.09,93.43,133.63,94.72,137.19z M90.29,136.53c-1.03-4.52-1.2-8.85-0.46-13.11c0.58-3.37,1.73-6.65,2.81-9.91
	c1.92-5.76,5.44-10.57,9.44-15.02c4.17-4.63,9.16-8.22,14.84-10.8c4.55-2.07,9.33-3.27,14.36-3.27c1.09,0,2.19,0.16,3.47,0.26
	c-0.87-2.09-1.74-4.02-3.29-5.54c-0.22-0.22-0.79-0.23-1.14-0.14c-1.22,0.33-2.41,0.8-3.63,1.11c-3.18,0.81-6.33,0.95-9.35-0.66
	c-1.27-0.68-2.56-1.35-3.83-2.03c-1.86-1.01-3.69-1.11-5.36,0.32c-0.72,0.62-1.29,1.43-1.83,2.21c-1.98,2.88-3.89,5.82-5.88,8.69
	c-1.92,2.76-4.18,5.22-7.31,6.63c-1.38,0.62-2.89,0.96-4.33,1.46c-1.68,0.59-2.96,1.48-3.4,3.43c-0.87,3.83-0.33,7.64-0.18,11.47
	c0.09,2.27,0.2,4.63-0.29,6.82c-0.63,2.83-1.94,5.49-2.82,8.27c-1.05,3.36-0.96,5.09,2.54,7.1
	C86.47,134.86,88.41,135.64,90.29,136.53z"/>
</svg>
