<?xml version="1.0" encoding="utf-8"?>
<!-- Generator: Adobe Illustrator 23.0.3, SVG Export Plug-In . SVG Version: 6.00 Build 0)  -->
<svg version="1.1" id="Layer_1" xmlns="http://www.w3.org/2000/svg" xmlns:xlink="http://www.w3.org/1999/xlink" x="0px" y="0px"
	 viewBox="0 0 396 396" style="enable-background:new 0 0 396 396;" xml:space="preserve">
<path d="M376.16,178.77c-2.62-19.78-8.92-38.37-18.54-55.82c-18.69-33.9-46.13-58.29-81.18-74.38
	c-18.15-8.33-37.16-13.64-57.01-15.43c-10.53-0.95-21.23-1.55-31.75-0.81c-36.36,2.54-69.72,13.86-99.14,35.85
	c-28.31,21.15-48.58,48.18-59.75,81.83c-4.33,13.05-6.87,26.45-7.63,40.19c-0.04,0.65-0.2,1.29-0.3,1.93c0,4.97,0,9.94,0,14.91
	c0.34,3.24,0.66,6.49,1.01,9.73c1.88,17.5,6.93,34.09,14.43,49.97c15.91,33.71,40.97,58.69,73.32,76.64
	c17.82,9.89,36.89,16.37,56.95,19.88c19.71,3.45,39.5,3.79,59.32,0.9c32.29-4.7,61.55-16.67,87.25-36.85
	c27.42-21.52,46.67-48.86,57.19-82.19c3.71-11.76,6.18-23.77,6.51-36.15c0.02-0.77,0.2-1.53,0.31-2.3c0-5.82,0-11.63,0-17.45
	C376.82,185.73,376.62,182.23,376.16,178.77z M307.77,97.62c1.1,0.56,2.45,0.87,3.26,1.71c6.18,6.39,12.35,12.79,18.31,19.39
	c2.23,2.47,1.82,5.04-0.38,6.87c-2.42,2.01-5.59,2.05-7.68-0.14c-5.7-5.94-11.35-11.93-16.93-17.97c-0.91-0.98-1.71-2.3-2-3.58
	C301.59,100.48,303.97,97.93,307.77,97.62z M302.3,189.96c0.34-2.12,1.89-3.2,3.7-3.86c0.77-0.28,1.9-0.33,2.58,0.05
	c9.64,5.4,19.31,10.76,28.79,16.42c3.54,2.12,3.82,4.98,1.31,7.72c-0.87,0.95-2.24,1.46-3.21,2.07c-1.1-0.32-1.85-0.41-2.46-0.75
	c-9.48-5.31-18.96-10.63-28.4-16C302.41,194.37,301.93,192.3,302.3,189.96z M266.04,154.32c8.41-3.49,16.83-6.98,25.21-10.57
	c3.69-1.58,8.1,1.12,7.42,6.04c-0.23,1.71-1.15,2.75-2.62,3.39c-4.76,2.08-9.51,4.18-14.29,6.2c-3.34,1.41-6.72,2.71-10.09,4.04
	c-0.62,0.24-1.25,0.45-1.9,0.61c-3.7,0.9-6.5-1.31-6.49-5.48C263.15,156.74,263.95,155.19,266.04,154.32z M290.98,232.29
	c-0.73,3.74-1.56,8.38-2.56,12.99c-1.24,5.73-2.6,11.43-3.94,17.14c-0.21,0.88-0.52,1.74-0.88,2.57c-1.15,2.65-3.11,3.51-5.92,2.67
	c-2.65-0.79-4.36-3.06-3.85-5.55c2.09-10.18,4.26-20.35,6.44-30.51c0.19-0.88,0.54-1.73,0.9-2.56c1.19-2.68,3.12-3.5,6.29-2.71
	C289.74,226.9,291.09,228.82,290.98,232.29z M244.1,103.34c0.78-5.44,1.64-10.87,2.58-16.28c0.4-2.34,1.78-3.95,4.26-4.35
	c3.85-0.61,6.25,1.66,6.47,5.86c-1.33,8.96-2.47,17.96-4.05,26.88c-0.86,4.88-5.77,6.21-9.14,2.63c-0.86-0.92-1.33-2.62-1.26-3.92
	C243.14,110.53,243.59,106.92,244.1,103.34z M204.29,112.56c-4.8,1.8-9.74,3.28-14.65,4.77c-4.57,1.39-9.23,2.49-13.77,3.96
	c-3.97,1.29-6.85-2.31-6.72-5.11c0.05-2.17,0.68-3.67,2.56-4.29c9.76-3.18,19.52-6.39,29.32-9.46c1.77-0.55,3.71-0.61,5.25,1
	C209.45,106.75,208.68,110.92,204.29,112.56z M163.58,58.84c0.43-2.88,1.95-4.2,6-4.11c2.87,0.55,6.98,1.27,11.07,2.13
	c6.16,1.29,12.3,2.65,18.43,4.04c1.23,0.28,2.45,0.72,3.59,1.26c2.34,1.11,3.24,3.3,2.49,5.77c-0.78,2.58-3.4,4.6-5.69,4.11
	c-10.94-2.35-21.87-4.76-32.78-7.22C164.3,64.28,163.13,61.81,163.58,58.84z M157.97,159.87c11.51-10.42,25.36-14.96,40.09-15.21
	c14.97,0.27,28.21,3.78,39.54,12.94c6.94,5.61,11.91,12.57,13.69,21.45c2.05,10.2-0.78,19.26-7.31,27.1
	c-8.81,10.57-20.38,16.36-33.87,18.32c-8.74,1.27-17.56,1.24-26.2-0.74c-10.09-2.31-19.14-6.79-26.64-14.07
	C142.34,195.17,142.56,173.83,157.97,159.87z M246.5,290.06c-1.02,1.44-2.41,2.16-4.29,2.36c-0.91-0.4-2-0.61-2.72-1.24
	c-8.06-7.06-16.1-14.13-24.05-21.31c-1.97-1.78-1.8-4.53,0.01-6.71c1.8-2.17,4.23-2.77,6.4-1.04c5.25,4.18,10.41,8.5,15.45,12.93
	c3.17,2.79,6.18,5.8,9.04,8.92C248.26,286.06,248.13,287.75,246.5,290.06z M187.17,261.38c-0.09,1.85-1.03,3.24-2.52,4.19
	c-5.49,3.53-10.98,7.08-16.56,10.47c-3.72,2.26-7.57,4.3-11.41,6.35c-2.56,1.37-4.45,0.77-5.97-1.7c-1.69-2.75-1.4-5.79,0.9-7.28
	c5.02-3.26,10.09-6.46,15.2-9.58c3.56-2.17,7.21-4.2,10.85-6.24c0.89-0.5,1.87-0.86,2.84-1.17
	C183.88,255.34,187.21,257.83,187.17,261.38z M105.53,102.55c1.58,0.58,3.13,1.34,4.52,2.27c6.6,4.38,13.15,8.84,19.69,13.31
	c0.94,0.64,1.79,1.44,2.6,2.26c3.21,3.26,2.15,7.39-2.32,8.6c-0.95,0.26-2.31-0.12-3.2-0.66c-6.25-3.8-12.46-7.67-18.61-11.63
	c-2.49-1.6-4.9-3.36-7.13-5.29c-1.11-0.95-1.74-2.46-2.16-3.09C98.86,104.11,102.42,101.41,105.53,102.55z M123.08,253.46
	c0.07,4.54-2.11,5.93-6.95,5.18c-1.65-0.26-2.38-1.68-2.72-3.1c-0.85-3.58-1.7-7.18-2.26-10.81c-1.13-7.23-2.08-14.48-3.08-21.72
	c-0.34-2.5,1.38-4.94,3.93-5.7c2.52-0.75,5.28,0.46,6.25,3.02c0.67,1.79,1.06,3.72,1.34,5.62c1.16,7.83,2.25,15.68,3.34,23.52
	c0.13,0.96,0.12,1.93,0.16,2.52C123.08,252.73,123.07,253.1,123.08,253.46z M74.19,187.36c8.54-7.15,17.13-14.23,25.81-21.2
	c2.47-1.98,4.92-1.45,6.91,0.99c1.88,2.3,1.77,4.99-0.62,7.05c-7.61,6.56-15.3,13.03-22.99,19.5c-0.97,0.81-2.06,1.49-3.16,2.12
	c-3.65,2.07-7.81-0.44-8.13-4.87C72.73,189.73,73.17,188.21,74.19,187.36z M33.77,215.35c-0.06,0.16-0.21,0.29-0.43,0.6
	c-3.24-6.84-0.22-44.76,4.6-57.8c0.6,2.42,1.17,4.43,1.58,6.47c0.96,4.68,1.97,9.35,2.72,14.06c1.03,6.54-0.03,12.9-2.21,19.09
	C37.96,203.64,35.86,209.5,33.77,215.35z M357.62,247.93c-15.75,42.31-44.83,72.2-85.45,91.2c-15.73,7.35-32.28,12.07-49.51,14.25
	c-10.6,1.34-21.26,1.32-31.93,1.04c-21.9-0.57-42.81-5.43-62.73-14.44c-36.99-16.74-65.13-42.76-82.52-79.77
	c-2.59-5.51-4.38-11.39-6.53-17.1c-0.17-0.44-0.22-0.92-0.43-1.8c0.93,1.2,1.58,2.08,2.28,2.91c3.01,3.55,6.78,5.95,11.15,7.52
	c4.1,1.47,8.15,3.06,12.21,4.64c9.93,3.86,16.81,10.69,20.39,20.82c1.59,4.5,3.36,8.95,5.29,13.31c2.19,4.96,5.73,8.93,9.81,12.46
	c5.15,4.44,11.16,5.38,17.56,4.17c6-1.13,11.88-2.96,17.9-3.86c4.63-0.69,9.42-0.72,14.1-0.48c5.14,0.27,9.58,2.72,13.06,6.45
	c4.13,4.42,7.98,9.1,11.91,13.7c4.59,5.36,9.6,10.18,16.66,12.04c16.56,4.38,31.17,1.24,43.2-11.5c2.99-3.17,5.93-6.39,8.95-9.54
	c3.91-4.06,8.62-6.1,14.37-6.32c9.13-0.34,18.26-1.01,27.37-1.78c3.54-0.3,7.09-0.98,10.51-1.96c10.68-3.06,17.26-10.49,21.15-20.58
	c1.74-4.51,3.23-9.12,5.08-13.59c4.61-11.15,12.11-19.7,23.02-25.15c5.9-2.95,11.8-5.94,16.72-10.47c0.12-0.11,0.32-0.12,1.05-0.37
	C360.63,238.77,359.3,243.42,357.62,247.93z M357.41,178.39c-3-8.38-0.58-16.42,1.21-24.58c4.92,13.18,6.78,26.86,7.69,40.94
	C364.32,193.69,359.55,184.38,357.41,178.39z"/>
</svg>
