<svg id="Capa_1" enable-background="new 0 0 512.066 512.066" height="512" viewBox="0 0 512.066 512.066" width="512" xmlns="http://www.w3.org/2000/svg"><g id="XMLID_2478_"><g id="XMLID_1495_"><path id="XMLID_1595_" d="m476.532 218.085c-21.571 0-40.146-12.778-48.604-31.171-28.095 8.264-59.714 1.316-81.88-20.85-22.188-22.188-29.13-53.848-20.828-81.964-18.405-8.453-31.194-27.034-31.194-48.615 0-7.765 1.668-15.136 4.645-21.795-76.289-13.36-157.668 9.41-216.593 68.335-96.069 96.069-96.069 251.828 0 347.896 96.069 96.069 251.828 96.069 347.896 0 58.896-58.896 81.673-140.225 68.355-216.482-6.658 2.977-14.031 4.646-21.797 4.646z" fill="#ffcb7c"/><path id="XMLID_1593_" d="m445.294 279.051c-7.118-14.562-7.118-31.594 0-46.157 3.388-6.931 5.102-14.254 5.314-21.509-9.925-5.516-17.911-14.101-22.68-24.471-28.095 8.264-59.714 1.316-81.88-20.85-22.188-22.188-29.13-53.848-20.828-81.964-.552-.254-1.099-.518-1.641-.789-11.544-1.221-22.497-6.233-31.015-14.473-20.373-19.708-52.704-19.708-73.076 0-11.649 11.27-27.848 16.533-43.897 14.263-28.066-3.97-54.223 15.034-59.12 42.953-2.801 15.965-12.812 29.745-27.13 37.342-25.039 13.285-35.03 44.034-22.582 69.499 7.118 14.562 7.118 31.594 0 46.157-12.448 25.465-2.458 56.214 22.582 69.499 14.318 7.597 24.33 21.376 27.13 37.342 4.897 27.919 31.054 46.923 59.12 42.953 16.049-2.27 32.248 2.993 43.897 14.263 20.373 19.708 52.704 19.708 73.076 0 11.649-11.27 27.848-16.533 43.897-14.263 28.066 3.97 54.223-15.034 59.12-42.953 2.801-15.965 12.812-29.745 27.13-37.342 25.04-13.285 35.031-44.034 22.583-69.5z" fill="#f6838d"/><circle id="XMLID_1500_" cx="256.027" cy="255.973" fill="#fff" r="78"/></g><g id="XMLID_735_"><path id="XMLID_736_" d="m367.087 319.902c-3.906-3.904-10.236-3.904-14.143 0-3.905 3.905-3.905 10.237 0 14.143l14 14c1.953 1.952 4.512 2.929 7.071 2.929s5.118-.977 7.071-2.929c3.905-3.905 3.905-10.237 0-14.143z"/><path id="XMLID_737_" d="m147.098 170.902c-3.906-3.904-10.236-3.904-14.143 0-3.905 3.905-3.905 10.237 0 14.143l14 14c1.953 1.952 4.512 2.929 7.071 2.929s5.118-.977 7.071-2.929c3.905-3.905 3.905-10.237 0-14.143z"/><path id="XMLID_738_" d="m147.098 319.902c-3.906-3.904-10.236-3.904-14.143 0-3.905 3.905-3.905 10.237 0 14.143l14 14c1.953 1.952 4.512 2.929 7.071 2.929s5.118-.977 7.071-2.929c3.905-3.905 3.905-10.237 0-14.143z"/><path id="XMLID_739_" d="m255.828 122.789c1.953 1.952 4.512 2.929 7.071 2.929s5.118-.977 7.071-2.929c3.905-3.905 3.905-10.237 0-14.143l-14-14c-3.906-3.904-10.236-3.904-14.143 0-3.905 3.905-3.905 10.237 0 14.143z"/><path id="XMLID_740_" d="m255.971 376.902c-3.906-3.904-10.236-3.904-14.143 0-3.905 3.905-3.905 10.237 0 14.143l14 14c1.953 1.952 4.512 2.929 7.071 2.929s5.118-.977 7.071-2.929c3.905-3.905 3.905-10.237 0-14.143z"/><path id="XMLID_762_" d="m178.027 156.968c2.56 0 5.119-.977 7.071-2.929l13.989-13.99c3.905-3.906 3.905-10.237 0-14.143-3.906-3.904-10.238-3.904-14.143 0l-13.989 13.99c-3.905 3.906-3.905 10.237 0 14.143 1.954 1.953 4.512 2.929 7.072 2.929z"/><path id="XMLID_764_" d="m316.27 362.913-13.989 13.989c-3.905 3.905-3.905 10.237 0 14.143 1.953 1.952 4.512 2.929 7.071 2.929s5.118-.977 7.071-2.929l13.989-13.989c3.905-3.905 3.905-10.237 0-14.143-3.906-3.905-10.236-3.905-14.142 0z"/><path id="XMLID_765_" d="m184.945 362.912-13.989 13.99c-3.905 3.906-3.905 10.237 0 14.143 1.953 1.952 4.512 2.929 7.071 2.929s5.119-.977 7.071-2.929l13.989-13.99c3.905-3.906 3.905-10.237 0-14.143-3.906-3.905-10.238-3.905-14.142 0z"/><path id="XMLID_774_" d="m387.929 234.913-13.989 13.989c-3.905 3.905-3.905 10.237 0 14.143 1.953 1.952 4.512 2.929 7.071 2.929s5.118-.977 7.071-2.929l13.989-13.989c3.905-3.905 3.905-10.237 0-14.143-3.906-3.905-10.236-3.905-14.142 0z"/><path id="XMLID_808_" d="m135.098 241.907c-3.906-3.904-10.236-3.904-14.143 0l-13.99 13.99c-3.905 3.905-3.905 10.237 0 14.143 1.953 1.952 4.512 2.929 7.071 2.929s5.118-.977 7.071-2.929l13.99-13.99c3.906-3.906 3.906-10.238.001-14.143z"/><path id="XMLID_813_" d="m256.027 167.973c-48.523 0-88 39.477-88 88s39.477 88 88 88 88-39.477 88-88-39.477-88-88-88zm0 156c-37.495 0-68-30.505-68-68s30.505-68 68-68 68 30.505 68 68-30.505 68-68 68z"/><path id="XMLID_822_" d="m508.18 211.718c-.53-3.037-2.433-5.66-5.155-7.108s-5.96-1.559-8.776-.301c-5.604 2.505-11.564 3.775-17.716 3.775-16.926 0-32.438-9.95-39.519-25.349-2.074-4.51-7.142-6.816-11.908-5.416-25.574 7.525-53.157.502-71.986-18.327-18.852-18.852-25.867-46.464-18.309-72.062 1.407-4.768-.9-9.845-5.418-11.92-15.409-7.076-25.366-22.592-25.366-39.526 0-6.151 1.27-12.111 3.774-17.714 1.258-2.814 1.147-6.053-.3-8.774-1.447-2.723-4.068-4.625-7.105-5.157-82.199-14.391-166.463 12.191-225.389 71.115-48.352 48.352-74.98 112.639-74.98 181.02 0 68.38 26.629 132.667 74.98 181.02 49.574 49.574 115.164 75.076 181.199 75.073 50.338-.002 100.938-14.824 144.875-45.102 4.548-3.134 5.694-9.361 2.561-13.908-3.134-4.548-9.359-5.692-13.908-2.561-93.631 64.521-220.045 52.894-300.584-27.646-44.575-44.574-69.123-103.84-69.123-166.877 0-63.038 24.548-122.303 69.123-166.877 51.589-51.591 124.251-76.285 196.354-67.272-.982 4.458-1.478 9.022-1.478 13.661 0 5.584.745 11.061 2.152 16.316-9.145-5.044-19.457-7.745-30.152-7.745-16.318 0-31.764 6.248-43.491 17.595-9.5 9.19-22.456 13.398-35.544 11.549-16.153-2.288-32.325 1.737-45.526 11.329s-22.024 23.725-24.844 39.797c-2.284 13.021-10.291 24.041-21.967 30.235-14.415 7.648-25.13 20.407-30.173 35.926-5.042 15.52-3.873 32.14 3.293 46.8 5.806 11.875 5.806 25.497 0 37.373-7.166 14.66-8.335 31.28-3.293 46.8 5.043 15.519 15.758 28.277 30.172 35.924 11.677 6.196 19.684 17.217 21.968 30.236 2.819 16.072 11.643 30.206 24.844 39.798 13.201 9.591 29.37 13.612 45.526 11.329 13.084-1.848 26.044 2.358 35.544 11.55 11.728 11.346 27.173 17.594 43.491 17.594 16.317 0 31.763-6.248 43.491-17.595 9.5-9.19 22.456-13.397 35.544-11.549 16.152 2.287 32.324-1.737 45.526-11.329 13.201-9.592 22.024-23.726 24.843-39.798 2.284-13.019 10.291-24.04 21.968-30.235 14.415-7.647 25.13-20.406 30.172-35.925 5.043-15.52 3.873-32.14-3.293-46.8-5.806-11.876-5.805-25.498.001-37.373 1.863-3.811 3.32-7.752 4.37-11.793 5.729 1.693 11.743 2.591 17.884 2.591 4.64 0 9.206-.495 13.665-1.479 7.259 57.668-6.64 115.167-39.648 163.072-3.134 4.548-1.987 10.774 2.561 13.908s10.774 1.986 13.908-2.561c19.091-27.706 32.334-58.482 39.36-91.472 6.887-32.332 7.493-65.248 1.802-97.835zm-71.87 71.725c10.137 20.738 2.105 45.456-18.285 56.274-17.165 9.107-28.936 25.309-32.293 44.447-3.987 22.734-25.001 38.014-47.869 34.779-19.239-2.723-38.286 3.468-52.251 16.978-16.59 16.049-42.58 16.048-59.17.001-13.965-13.511-33.005-19.697-52.251-16.979-22.866 3.229-43.883-12.046-47.87-34.779-3.357-19.14-15.128-35.34-32.293-44.448-20.39-10.817-28.422-35.536-18.284-56.273 8.533-17.458 8.533-37.482 0-54.939-10.137-20.737-2.105-45.456 18.284-56.274 17.165-9.107 28.936-25.308 32.293-44.448 3.987-22.733 25.004-38.016 47.87-34.778 19.239 2.725 38.285-3.468 52.251-16.978 16.589-16.049 42.579-16.048 59.17-.001 7.71 7.46 17.287 12.8 27.611 15.524-5.19 29.572 4.226 60.059 25.754 81.587 22.076 22.076 53.589 31.424 83.868 25.327 4.541 7.181 10.443 13.296 17.264 18.077-.66 4.132-1.93 8.141-3.8 11.964-8.533 17.456-8.533 37.482.001 54.939z"/><path id="XMLID_828_" d="m429.971 419.918c-2.631 0-5.21 1.07-7.07 2.931-1.86 1.859-2.93 4.439-2.93 7.069s1.069 5.21 2.93 7.07 4.439 2.93 7.07 2.93c2.63 0 5.21-1.069 7.069-2.93 1.87-1.86 2.931-4.44 2.931-7.07s-1.061-5.21-2.931-7.069c-1.859-1.86-4.429-2.931-7.069-2.931z"/></g></g></svg>